<?xml version="1.0" encoding="UTF-8"?> <svg xmlns="http://www.w3.org/2000/svg" xmlns:xlink="http://www.w3.org/1999/xlink" width="425px" height="358px" viewBox="0 0 425 358" version="1.1"><!-- Generator: sketchtool 63.1 (101010) - https://sketch.com --><title>D72C1D1C-EBDD-475A-A3BC-9FF9518BD662</title><desc>Created with sketchtool.</desc><defs><linearGradient x1="13.134146%" y1="20.5550044%" x2="71.6409429%" y2="75.0516569%" id="linearGradient-1"><stop stop-color="#00C3B6" offset="0%"></stop><stop stop-color="#02A297" offset="100%"></stop></linearGradient></defs><g id="Base-Pages" stroke="none" stroke-width="1" fill="none" fill-rule="evenodd"><g id="Awards/Paul-Sinclair-Award" transform="translate(-225.000000, -350.000000)" fill="url(#linearGradient-1)"><g id="Group-18" transform="translate(170.000000, 190.000000)"><g id="Group-7" transform="translate(2.000000, 0.000000)"><path d="M143.195718,163.047007 C142.475368,163.251798 141.74827,163.468377 141.013125,163.695798 C85.352691,180.975851 43.6680712,234.395431 55.4660893,286.925012 C69.0837028,347.558236 105.394995,395.448341 148.374963,437.599817 C190.630405,479.038733 263.372338,537.049647 335.388371,510.210556 C391.166601,489.422759 443.604559,434.520856 465.985878,381.888422 C489.94808,325.536627 478.312628,246.749656 412.598805,235.191761 C381.973341,229.804711 348.794454,241.245544 318.211596,235.928763 C283.17276,229.836167 249.279294,214.381664 224.05725,192.125117 C200.688481,171.50322 180.1818,152.523927 143.195718,163.047007" id="a-ps-green-shape"></path></g></g></g></g></svg> 